<mxfile host="app.diagrams.net" modified="2023-05-18T15:19:06.770Z" agent="Mozilla/5.0 (Windows NT 10.0; Win64; x64) AppleWebKit/537.36 (KHTML, like Gecko) Chrome/111.0.0.0 Safari/537.36" etag="mM5TD0K8gfSgi2eRSh9Q" version="21.3.2" type="onedrive">
  <diagram name="PÃ¡gina-1" id="Um9HZnOgq5txmJUt7RVh">
    <mxGraphModel grid="1" page="1" gridSize="10" guides="1" tooltips="1" connect="1" arrows="1" fold="1" pageScale="1" pageWidth="827" pageHeight="1169" math="0" shadow="0">
      <root>
        <mxCell id="0" />
        <mxCell id="1" parent="0" />
      </root>
    </mxGraphModel>
  </diagram>
</mxfile>
